<svg width="322" height="61" viewBox="0 0 322 61" fill="none" xmlns="http://www.w3.org/2000/svg">
<path d="M302.547 45.0976C303.951 45.0976 305.185 44.8537 306.25 44.3659C307.315 43.8293 308.356 42.9512 309.372 41.7317L310.244 42.3902C309.13 44 307.702 45.2683 305.96 46.1951C304.265 47.0732 302.402 47.5122 300.369 47.5122C298.142 47.5122 296.133 46.9756 294.342 45.9024C292.599 44.8293 291.22 43.3659 290.203 41.5122C289.187 39.6098 288.679 37.4634 288.679 35.0732C288.679 31.2683 289.816 28.2439 292.091 26C294.415 23.7073 297.488 22.561 301.313 22.561C304.023 22.561 306.226 23.2195 307.92 24.5366C309.663 25.8049 310.534 27.4634 310.534 29.5122C310.534 31.8537 309.542 33.7317 307.557 35.1463C305.621 36.5122 302.958 37.1951 299.57 37.1951C298.215 37.1951 296.98 37.0976 295.867 36.9024C296.109 39.439 296.835 41.439 298.045 42.9024C299.255 44.3658 300.756 45.0976 302.547 45.0976ZM300.514 24.3171C299.013 24.3171 297.827 25.2439 296.956 27.0976C296.133 28.9024 295.722 31.439 295.722 34.7073V35.878C296.254 35.878 296.908 35.8293 297.682 35.7317C299.715 35.4878 301.264 34.8293 302.329 33.7561C303.442 32.6341 303.999 31.1707 303.999 29.3659C303.999 27.9024 303.66 26.7073 302.983 25.7805C302.353 24.8049 301.53 24.3171 300.514 24.3171Z" fill="#D79B94"/>
<path d="M275.339 40.1951C274.662 42.3415 273.476 44.0976 271.781 45.4634C270.136 46.8293 268.369 47.5122 266.481 47.5122C264.351 47.5122 262.778 46.8293 261.761 45.4634C260.745 44.0976 260.237 42 260.237 39.1707V27.2439C260.237 26.561 259.922 26.2195 259.293 26.2195H257.042L256.824 25.4146C257.792 24.5854 259.002 23.9024 260.454 23.3659C261.907 22.8293 263.335 22.561 264.738 22.561C265.368 22.561 265.852 22.7073 266.191 23C266.578 23.2927 266.771 23.6829 266.771 24.1707V38.8049C266.771 40.4634 267.013 41.7561 267.498 42.6829C267.982 43.561 268.659 44 269.531 44C271.322 44 272.75 42.9024 273.815 40.7073C274.928 38.4634 275.485 35.561 275.485 32C275.485 30.0976 275.339 28.6341 275.049 27.6098C274.807 26.5366 274.347 25.6098 273.669 24.8293L273.016 24.0244L273.597 23.3659L281.947 22.7073V42.6829C281.947 44.1463 282.382 44.878 283.254 44.878C284.173 44.878 285.069 44.5122 285.94 43.7805L286.521 44.5122C284.827 46.5122 282.721 47.5122 280.204 47.5122C278.365 47.5122 277.082 46.9756 276.356 45.9024C275.678 44.8293 275.339 42.9268 275.339 40.1951Z" fill="#D79B94"/>
<path d="M236.75 53.7317C236.75 54.8049 237.065 55.6829 237.694 56.3659C238.372 57.0488 239.219 57.3902 240.236 57.3902C243.624 57.3902 245.318 54.6098 245.318 49.0488V41.9512C244.108 43.3659 242.849 44.4146 241.542 45.0976C240.236 45.7805 238.783 46.122 237.186 46.122C234.814 46.122 232.878 45.1219 231.377 43.1219C229.925 41.1219 229.199 38.4878 229.199 35.2195C229.199 31.3171 230.385 28.2439 232.757 26C235.129 23.7073 238.323 22.561 242.341 22.561C243.406 22.561 244.568 22.6585 245.826 22.8537C247.133 23.0488 247.932 23.1707 248.223 23.2195C250.256 23.5122 251.659 23.7073 252.434 23.8049L253.015 24.3902L252.434 25.2683C251.998 25.8537 251.78 26.4634 251.78 27.0976V46.8537C251.78 50.7073 250.667 53.6829 248.44 55.7805C246.262 57.9268 243.212 59 239.292 59C236.871 59 234.911 58.5366 233.41 57.6098C231.91 56.6829 231.159 55.4634 231.159 53.9512C231.159 52.6341 231.547 51.561 232.321 50.7317C233.096 49.9512 234.112 49.561 235.371 49.561C236.29 49.561 237.186 49.7561 238.057 50.1463C237.186 51.0244 236.75 52.2195 236.75 53.7317ZM240.671 42.6098C242.607 42.6098 244.132 41.5854 245.246 39.5366V24.9756C244.132 24.4878 243.067 24.2439 242.051 24.2439C240.211 24.2439 238.808 25.0732 237.839 26.7317C236.92 28.3415 236.46 30.7073 236.46 33.8293C236.46 36.6585 236.823 38.8293 237.549 40.3415C238.275 41.8537 239.316 42.6098 240.671 42.6098Z" fill="#D79B94"/>
<path d="M200.753 35.0732C200.753 31.2195 201.842 28.1707 204.02 25.9268C206.247 23.6829 209.248 22.561 213.024 22.561C216.8 22.561 219.801 23.7073 222.028 26C224.254 28.2439 225.368 31.2683 225.368 35.0732C225.368 38.878 224.254 41.9024 222.028 44.1463C219.801 46.3902 216.8 47.5122 213.024 47.5122C209.248 47.5122 206.247 46.3902 204.02 44.1463C201.842 41.9024 200.753 38.878 200.753 35.0732ZM218.034 35.2195C218.034 31.9512 217.574 29.2927 216.654 27.2439C215.735 25.1463 214.573 24.0976 213.169 24.0976C211.62 24.0976 210.362 25.1219 209.394 27.1707C208.425 29.1707 207.941 31.8049 207.941 35.0732C207.941 38.3902 208.377 41.0244 209.248 42.9756C210.168 44.9268 211.378 45.9024 212.879 45.9024C214.379 45.9024 215.614 44.9268 216.582 42.9756C217.55 40.9756 218.034 38.3902 218.034 35.2195Z" fill="#D79B94"/>
<path d="M203.227 13.4878C202.017 14.4634 201.121 15.3415 200.54 16.1219C199.959 16.9024 199.451 17.9512 199.015 19.2683L189.867 46.8537H183.55L174.256 19.2683C173.772 17.9024 173.239 16.8293 172.658 16.0488C172.126 15.2683 171.254 14.4146 170.044 13.4878L170.625 12.6829H183.84L184.276 14L183.259 14.2927C182.485 14.4878 181.952 14.7805 181.662 15.1707C181.371 15.5122 181.226 16.0244 181.226 16.7073C181.226 17.1951 181.395 17.9756 181.734 19.0488L188.995 41.0732L196.256 19.1951C196.595 18.1219 196.765 17.3171 196.765 16.7805C196.765 16.1951 196.595 15.7317 196.256 15.3902C195.966 15 195.458 14.7073 194.731 14.5122L193.424 14L193.933 12.6829H202.646L203.227 13.4878Z" fill="#D79B94"/>
<path d="M158.911 45.0976C160.314 45.0976 161.549 44.8537 162.614 44.3659C163.679 43.8293 164.719 42.9512 165.736 41.7317L166.607 42.3902C165.494 44 164.066 45.2683 162.323 46.1951C160.629 47.0732 158.765 47.5122 156.732 47.5122C154.506 47.5122 152.497 46.9756 150.706 45.9024C148.963 44.8293 147.584 43.3659 146.567 41.5122C145.55 39.6098 145.042 37.4634 145.042 35.0732C145.042 31.2683 146.18 28.2439 148.455 26C150.778 23.7073 153.852 22.561 157.676 22.561C160.387 22.561 162.589 23.2195 164.284 24.5366C166.026 25.8049 166.898 27.4634 166.898 29.5122C166.898 31.8537 165.905 33.7317 163.921 35.1463C161.984 36.5122 159.322 37.1951 155.934 37.1951C154.578 37.1951 153.344 37.0976 152.231 36.9024C152.473 39.439 153.199 41.439 154.409 42.9024C155.619 44.3658 157.12 45.0976 158.911 45.0976ZM156.878 24.3171C155.377 24.3171 154.191 25.2439 153.32 27.0976C152.497 28.9024 152.085 31.439 152.085 34.7073V35.878C152.618 35.878 153.271 35.8293 154.046 35.7317C156.079 35.4878 157.628 34.8293 158.693 33.7561C159.806 32.6341 160.363 31.1707 160.363 29.3659C160.363 27.9024 160.024 26.7073 159.346 25.7805C158.717 24.8049 157.894 24.3171 156.878 24.3171Z" fill="#5F6C7B"/>
<path d="M131.353 22.561C133.289 22.561 135.032 23.0732 136.581 24.0976C138.178 25.0732 139.413 26.439 140.284 28.1951C141.204 29.9512 141.664 31.9268 141.664 34.1219C141.664 36.6585 141.058 38.9512 139.848 41C138.687 43 137.065 44.5854 134.983 45.7561C132.902 46.9268 130.579 47.5122 128.013 47.5122C126.27 47.5122 124.528 47.2439 122.785 46.7073C121.042 46.1707 119.614 45.439 118.501 44.5122V15.6098C118.501 15.2195 118.429 14.9512 118.283 14.8049C118.138 14.6585 117.896 14.5854 117.557 14.5854H115.306L115.089 13.8537C116.008 12.9756 117.194 12.2927 118.646 11.8049C120.147 11.2683 121.623 11 123.076 11C123.705 11 124.189 11.1463 124.528 11.439C124.915 11.6829 125.109 12.0488 125.109 12.5366V24.8293C125.835 24.0976 126.73 23.5366 127.795 23.1463C128.908 22.7561 130.094 22.561 131.353 22.561ZM128.376 45.8293C132.394 45.8293 134.403 42.3415 134.403 35.3659C134.403 31.9024 133.894 29.2683 132.878 27.4634C131.91 25.6098 130.457 24.6829 128.521 24.6829C127.311 24.6829 126.174 25.0488 125.109 25.7805V45.0976C126.174 45.5854 127.263 45.8293 128.376 45.8293Z" fill="#5F6C7B"/>
<path d="M110.157 42.6829C110.157 44.1463 110.617 44.878 111.537 44.878C112.457 44.878 113.352 44.5122 114.223 43.7805L114.804 44.5122C113.013 46.5122 110.908 47.5122 108.487 47.5122C106.745 47.5122 105.486 47.0732 104.712 46.1951C103.937 45.2683 103.55 43.7805 103.55 41.7317V27.2439C103.55 26.561 103.235 26.2195 102.606 26.2195H100.355L100.137 25.4146C101.105 24.5854 102.316 23.9024 103.768 23.3659C105.22 22.8293 106.672 22.561 108.124 22.561C108.705 22.561 109.189 22.7073 109.576 23C109.964 23.2927 110.157 23.6829 110.157 24.1707V42.6829ZM102.824 15.5366C102.824 14.6585 103.308 13.6829 104.276 12.6098C105.244 11.5366 106.14 11 106.963 11C107.834 11 108.754 11.5366 109.722 12.6098C110.738 13.6829 111.246 14.6585 111.246 15.5366C111.246 16.4634 110.738 17.4634 109.722 18.5366C108.754 19.561 107.834 20.0732 106.963 20.0732C106.14 20.0732 105.244 19.561 104.276 18.5366C103.308 17.4634 102.824 16.4634 102.824 15.5366Z" fill="#5F6C7B"/>
<path d="M99.1825 13.4878C97.9724 14.4634 97.0769 15.3415 96.496 16.1219C95.9151 16.9024 95.4068 17.9512 94.9712 19.2683L85.8224 46.8537H79.5054L70.2113 19.2683C69.7273 17.9024 69.1948 16.8293 68.6139 16.0488C68.0815 15.2683 67.2102 14.4146 66 13.4878L66.5809 12.6829H79.7958L80.2315 14L79.2149 14.2927C78.4404 14.4878 77.908 14.7805 77.6175 15.1707C77.3271 15.5122 77.1819 16.0244 77.1819 16.7073C77.1819 17.1951 77.3513 17.9756 77.6901 19.0488L84.9511 41.0732L92.212 19.1951C92.5509 18.1219 92.7203 17.3171 92.7203 16.7805C92.7203 16.1951 92.5509 15.7317 92.212 15.3902C91.9216 15 91.4133 14.7073 90.6872 14.5122L89.3802 14L89.8885 12.6829H98.6017L99.1825 13.4878Z" fill="#5F6C7B"/>
<rect width="61" height="61" rx="5" fill="#5F6C7B"/>
<path d="M45.0282 11C49.6761 11 52 13.1886 52 17.5658C52 20.946 50.1953 25.5786 46.5858 31.4635C41.9379 39.0264 38.3779 45.7017 35.9056 51.4893C35.0156 51.8298 34.0267 52 32.9389 52C31.8511 52 30.788 51.7933 29.7497 51.3799C28.7113 50.9665 27.9944 50.5045 27.5988 49.9938C27.228 49.4831 26.3874 47.6349 25.0771 44.4493C23.7915 41.2636 22.4318 37.9321 20.9979 34.4546C19.5887 30.9772 18.0065 27.6213 16.2512 24.387C14.4959 21.1527 13.0249 19.1708 11.8382 18.4413C11.4426 18.1981 10.2559 18.0036 8.27813 17.8577C8.25341 17.6631 8.21632 17.4564 8.16688 17.2375C8.11743 16.9944 8.08035 16.812 8.05563 16.6904C7.98146 16.1797 7.98146 15.7177 8.05563 15.3043C11.6404 13.3345 15.6578 12.3496 20.1079 12.3496C20.9237 12.3496 21.5294 12.3618 21.925 12.3861C22.9386 13.4318 24.4591 16.3864 26.4863 21.25C28.5136 26.0893 31.0229 33.2266 34.0143 42.6619C39.3297 27.4632 42.111 18.648 42.3582 16.2162C42.4324 15.6082 42.4694 14.9273 42.4694 14.1735C42.4694 13.3953 42.2346 12.6536 41.7649 11.9484C41.7649 11.7295 42.1233 11.5228 42.8403 11.3283C43.5572 11.1094 44.2866 11 45.0282 11Z" fill="white"/>
</svg>
