<svg width="312" height="61" viewBox="0 0 312 61" fill="none" xmlns="http://www.w3.org/2000/svg">
<rect width="61" height="61" rx="5" fill="white"/>
<path d="M45.0282 11C49.6761 11 52 13.1886 52 17.5658C52 20.946 50.1953 25.5786 46.5858 31.4635C41.9379 39.0264 38.3779 45.7017 35.9056 51.4893C35.0156 51.8298 34.0267 52 32.9389 52C31.8511 52 30.788 51.7933 29.7497 51.3799C28.7113 50.9665 27.9944 50.5044 27.5988 49.9938C27.228 49.4831 26.3874 47.6349 25.0771 44.4493C23.7915 41.2636 22.4318 37.9321 20.9979 34.4546C19.5887 30.9772 18.0065 27.6213 16.2512 24.387C14.4959 21.1527 13.0249 19.1708 11.8382 18.4413C11.4426 18.1981 10.2559 18.0036 8.27813 17.8577C8.25341 17.6631 8.21632 17.4564 8.16688 17.2375C8.11743 16.9944 8.08035 16.812 8.05563 16.6904C7.98146 16.1797 7.98146 15.7177 8.05563 15.3043C11.6404 13.3345 15.6578 12.3496 20.1079 12.3496C20.9237 12.3496 21.5294 12.3618 21.925 12.3861C22.9386 13.4318 24.4591 16.3864 26.4863 21.25C28.5136 26.0893 31.0229 33.2266 34.0143 42.6619C39.3297 27.4632 42.111 18.648 42.3582 16.2162C42.4324 15.6082 42.4694 14.9273 42.4694 14.1735C42.4694 13.3953 42.2346 12.6536 41.7649 11.9484C41.7649 11.7295 42.1233 11.5228 42.8403 11.3283C43.5572 11.1094 44.2866 11 45.0282 11Z" fill="#5F6C7B" stroke="url(#paint0_linear_10_132)" stroke-width="2" stroke-linejoin="round"/>
<path d="M304.1 45.4679C305.488 45.4679 306.709 45.2285 307.763 44.7497C308.816 44.223 309.845 43.3612 310.851 42.1642L311.713 42.8106C310.611 44.3906 309.199 45.6355 307.475 46.5452C305.8 47.407 303.956 47.8379 301.945 47.8379C299.743 47.8379 297.756 47.3112 295.984 46.2579C294.261 45.2045 292.896 43.7682 291.891 41.9487C290.885 40.0814 290.382 37.9747 290.382 35.6286C290.382 31.894 291.508 28.9255 293.758 26.723C296.056 24.4726 299.096 23.3475 302.879 23.3475C305.56 23.3475 307.739 23.9938 309.415 25.2866C311.138 26.5315 312 28.1594 312 30.1703C312 32.4685 311.018 34.3119 309.055 35.7004C307.14 37.0411 304.507 37.7114 301.155 37.7114C299.815 37.7114 298.594 37.6156 297.492 37.4241C297.732 39.9138 298.45 41.8769 299.647 43.3133C300.844 44.7497 302.328 45.4679 304.1 45.4679ZM302.089 25.0711C300.605 25.0711 299.432 25.9809 298.57 27.8003C297.756 29.5718 297.349 32.0616 297.349 35.2695V36.4186C297.875 36.4186 298.522 36.3707 299.288 36.275C301.299 36.0356 302.831 35.3892 303.884 34.3359C304.986 33.2346 305.536 31.7982 305.536 30.0267C305.536 28.5903 305.201 27.4172 304.531 26.5075C303.908 25.5499 303.094 25.0711 302.089 25.0711Z" fill="white"/>
<path d="M277.188 40.656C276.518 42.7627 275.345 44.4863 273.669 45.827C272.041 47.1676 270.294 47.8379 268.426 47.8379C266.32 47.8379 264.764 47.1676 263.758 45.827C262.753 44.4863 262.25 42.4275 262.25 39.6505V27.9439C262.25 27.2736 261.939 26.9384 261.316 26.9384H259.09L258.874 26.1484C259.832 25.3345 261.029 24.6642 262.465 24.1375C263.902 23.6108 265.314 23.3475 266.703 23.3475C267.325 23.3475 267.804 23.4911 268.139 23.7784C268.522 24.0657 268.714 24.4487 268.714 24.9275V39.2914C268.714 40.9193 268.953 42.1881 269.432 43.0978C269.911 43.9597 270.581 44.3906 271.443 44.3906C273.214 44.3906 274.627 43.3133 275.68 41.1587C276.781 38.9562 277.332 36.1074 277.332 32.6122C277.332 30.7449 277.188 29.3085 276.901 28.303C276.662 27.2497 276.207 26.34 275.536 25.5739L274.89 24.7839L275.465 24.1375L283.724 23.4911V43.0978C283.724 44.5342 284.155 45.2524 285.017 45.2524C285.926 45.2524 286.812 44.8933 287.674 44.1751L288.248 44.8933C286.573 46.8564 284.49 47.8379 282 47.8379C280.181 47.8379 278.912 47.3112 278.194 46.2579C277.523 45.2045 277.188 43.3372 277.188 40.656Z" fill="white"/>
<path d="M239.019 53.9426C239.019 54.9959 239.33 55.8578 239.953 56.5281C240.623 57.1984 241.461 57.5336 242.466 57.5336C245.818 57.5336 247.494 54.8044 247.494 49.3461V42.3796C246.297 43.7682 245.052 44.7976 243.759 45.4679C242.466 46.1382 241.03 46.4734 239.45 46.4734C237.104 46.4734 235.189 45.4918 233.704 43.5288C232.268 41.5657 231.55 38.9802 231.55 35.7722C231.55 31.9419 232.723 28.9255 235.069 26.723C237.415 24.4726 240.575 23.3475 244.549 23.3475C245.602 23.3475 246.752 23.4432 247.996 23.6348C249.289 23.8263 250.079 23.946 250.367 23.9938C252.377 24.2811 253.766 24.4726 254.532 24.5684L255.107 25.143L254.532 26.0048C254.101 26.5793 253.886 27.1778 253.886 27.8003V47.1915C253.886 50.974 252.784 53.8947 250.582 55.9535C248.427 58.0602 245.411 59.1136 241.533 59.1136C239.139 59.1136 237.2 58.6587 235.715 57.749C234.231 56.8393 233.489 55.6423 233.489 54.158C233.489 52.8653 233.872 51.8119 234.638 50.998C235.404 50.2319 236.41 49.8489 237.654 49.8489C238.564 49.8489 239.45 50.0404 240.312 50.4234C239.45 51.2853 239.019 52.4583 239.019 53.9426ZM242.897 43.026C244.812 43.026 246.321 42.0205 247.422 40.0096V25.7175C246.321 25.2387 245.267 24.9993 244.262 24.9993C242.442 24.9993 241.054 25.8133 240.096 27.4412C239.187 29.0212 238.732 31.3434 238.732 34.4077C238.732 37.1847 239.091 39.3153 239.809 40.7996C240.527 42.2839 241.557 43.026 242.897 43.026Z" fill="white"/>
<path d="M203.413 35.6286C203.413 31.8461 204.491 28.8536 206.645 26.6512C208.848 24.4487 211.816 23.3475 215.551 23.3475C219.286 23.3475 222.254 24.4726 224.457 26.723C226.659 28.9255 227.76 31.894 227.76 35.6286C227.76 39.3632 226.659 42.3318 224.457 44.5342C222.254 46.7367 219.286 47.8379 215.551 47.8379C211.816 47.8379 208.848 46.7367 206.645 44.5342C204.491 42.3318 203.413 39.3632 203.413 35.6286ZM220.506 35.7722C220.506 32.5643 220.052 29.9549 219.142 27.9439C218.232 25.8851 217.083 24.8557 215.695 24.8557C214.162 24.8557 212.918 25.8612 211.96 27.8721C211.002 29.8352 210.524 32.4207 210.524 35.6286C210.524 38.8844 210.954 41.4699 211.816 43.3851C212.726 45.3003 213.923 46.2579 215.407 46.2579C216.892 46.2579 218.112 45.3003 219.07 43.3851C220.028 41.422 220.506 38.8844 220.506 35.7722Z" fill="white"/>
<path d="M201.607 14.4419C200.41 15.3995 199.525 16.2613 198.95 17.0274C198.375 17.7934 197.873 18.8229 197.442 20.1156L188.392 47.1916H182.144L172.951 20.1156C172.472 18.775 171.946 17.7216 171.371 16.9555C170.845 16.1895 169.983 15.3516 168.786 14.4419L169.36 13.6519H182.431L182.862 14.9446L181.857 15.2319C181.091 15.4234 180.564 15.7107 180.277 16.0937C179.99 16.4289 179.846 16.9316 179.846 17.6019C179.846 18.0807 180.014 18.8468 180.349 19.9001L187.531 41.5178L194.713 20.0438C195.048 18.9904 195.215 18.2004 195.215 17.6737C195.215 17.0992 195.048 16.6443 194.713 16.3092C194.425 15.9261 193.923 15.6389 193.204 15.4473L191.912 14.9446L192.414 13.6519H201.033L201.607 14.4419Z" fill="white"/>
<path d="M159.9 45.4679C161.288 45.4679 162.509 45.2285 163.563 44.7497C164.616 44.223 165.645 43.3612 166.651 42.1642L167.513 42.8106C166.411 44.3906 164.999 45.6355 163.275 46.5452C161.6 47.407 159.756 47.8379 157.745 47.8379C155.543 47.8379 153.556 47.3112 151.784 46.2579C150.061 45.2045 148.696 43.7682 147.69 41.9487C146.685 40.0814 146.182 37.9747 146.182 35.6286C146.182 31.894 147.307 28.9255 149.558 26.723C151.856 24.4726 154.896 23.3475 158.679 23.3475C161.36 23.3475 163.539 23.9938 165.214 25.2866C166.938 26.5315 167.8 28.1594 167.8 30.1703C167.8 32.4685 166.818 34.3119 164.855 35.7004C162.94 37.0411 160.307 37.7114 156.955 37.7114C155.615 37.7114 154.394 37.6156 153.292 37.4241C153.532 39.9138 154.25 41.8769 155.447 43.3133C156.644 44.7497 158.128 45.4679 159.9 45.4679ZM157.889 25.0711C156.405 25.0711 155.232 25.9809 154.37 27.8003C153.556 29.5718 153.149 32.0616 153.149 35.2695V36.4186C153.675 36.4186 154.322 36.3707 155.088 36.275C157.099 36.0356 158.631 35.3892 159.684 34.3359C160.786 33.2346 161.336 31.7982 161.336 30.0267C161.336 28.5903 161.001 27.4172 160.331 26.5075C159.708 25.5499 158.894 25.0711 157.889 25.0711Z" fill="white"/>
<path d="M132.642 23.3475C134.557 23.3475 136.281 23.8502 137.813 24.8557C139.393 25.8133 140.614 27.1539 141.476 28.8776C142.386 30.6012 142.84 32.5404 142.84 34.695C142.84 37.1847 142.242 39.435 141.045 41.446C139.896 43.4091 138.292 44.9652 136.233 46.1143C134.174 47.2634 131.876 47.8379 129.338 47.8379C127.615 47.8379 125.891 47.5746 124.167 47.0479C122.444 46.5212 121.031 45.803 119.93 44.8933V16.5246C119.93 16.1416 119.858 15.8783 119.715 15.7346C119.571 15.591 119.331 15.5192 118.996 15.5192H116.77L116.554 14.801C117.464 13.9391 118.637 13.2688 120.074 12.79C121.558 12.2633 123.018 12 124.455 12C125.077 12 125.556 12.1436 125.891 12.4309C126.274 12.6703 126.466 13.0294 126.466 13.5082V25.5739C127.184 24.8557 128.07 24.3051 129.123 23.922C130.224 23.539 131.397 23.3475 132.642 23.3475ZM129.697 46.1861C133.671 46.1861 135.658 42.7627 135.658 35.9159C135.658 32.5164 135.156 29.9309 134.15 28.1594C133.193 26.34 131.756 25.4302 129.841 25.4302C128.644 25.4302 127.519 25.7893 126.466 26.5075V45.4679C127.519 45.9467 128.596 46.1861 129.697 46.1861Z" fill="white"/>
<path d="M111.677 43.0978C111.677 44.5342 112.132 45.2524 113.041 45.2524C113.951 45.2524 114.837 44.8933 115.699 44.1751L116.273 44.8933C114.502 46.8564 112.419 47.8379 110.025 47.8379C108.301 47.8379 107.057 47.407 106.29 46.5452C105.524 45.6355 105.141 44.1751 105.141 42.1642V27.9439C105.141 27.2736 104.83 26.9385 104.208 26.9385H101.981L101.766 26.1484C102.723 25.3345 103.92 24.6642 105.357 24.1375C106.793 23.6108 108.23 23.3475 109.666 23.3475C110.241 23.3475 110.719 23.4911 111.102 23.7784C111.485 24.0657 111.677 24.4487 111.677 24.9275V43.0978ZM104.423 16.4528C104.423 15.591 104.902 14.6334 105.86 13.58C106.817 12.5267 107.703 12 108.517 12C109.379 12 110.288 12.5267 111.246 13.58C112.251 14.6334 112.754 15.591 112.754 16.4528C112.754 17.3625 112.251 18.3441 111.246 19.3974C110.288 20.4029 109.379 20.9056 108.517 20.9056C107.703 20.9056 106.817 20.4029 105.86 19.3974C104.902 18.3441 104.423 17.3625 104.423 16.4528Z" fill="white"/>
<path d="M100.822 14.4419C99.6245 15.3995 98.7387 16.2613 98.1642 17.0274C97.5896 17.7934 97.0869 18.8229 96.656 20.1156L87.6067 47.1916H81.3584L72.1655 20.1156C71.6867 18.775 71.1601 17.7216 70.5855 16.9555C70.0588 16.1895 69.197 15.3516 68 14.4419L68.5746 13.6519H81.6457L82.0766 14.9446L81.0711 15.2319C80.3051 15.4234 79.7784 15.7107 79.4911 16.0937C79.2038 16.4289 79.0602 16.9316 79.0602 17.6019C79.0602 18.0807 79.2278 18.8468 79.5629 19.9001L86.7449 41.5178L93.9268 20.0438C94.262 18.9904 94.4296 18.2004 94.4296 17.6737C94.4296 17.0992 94.262 16.6443 93.9268 16.3092C93.6396 15.9261 93.1368 15.6389 92.4186 15.4473L91.1259 14.9446L91.6286 13.6519H100.247L100.822 14.4419Z" fill="white"/>
<defs>
<linearGradient id="paint0_linear_10_132" x1="10.5" y1="8" x2="33.5" y2="45" gradientUnits="userSpaceOnUse">
<stop stop-color="#5F6C7B"/>
<stop offset="1" stop-color="#5F6C7B"/>
</linearGradient>
</defs>
</svg>
