<svg width="30" height="30" viewBox="0 0 30 30" fill="none" xmlns="http://www.w3.org/2000/svg">
<path d="M22.5 8.05664L21.916 7.95703C20.9622 7.79419 20.7483 7.71584 19.8291 7.71582C19.2977 7.71582 18.9265 7.78997 18.6377 7.91406C18.3525 8.03667 18.1133 8.22261 17.8662 8.49902C17.4306 8.98657 17.1495 9.91847 17.1494 11.4492V12.3877H22.7061L22.4717 13.0537L21.0361 17.1279L20.9189 17.4619H17.1494V27.5H11.4248V17.4531H7.5V12.3789H11.4248V11.3965C11.4248 8.58544 12.0237 6.34741 13.3438 4.80859C14.6763 3.25521 16.6685 2.50009 19.2559 2.5C20.8579 2.5 21.3313 2.76551 22.1133 2.94824L22.5 3.03809V8.05664Z" stroke="#F5EBDD"/>
</svg>
