<svg width="61" height="61" viewBox="0 0 61 61" fill="none" xmlns="http://www.w3.org/2000/svg">
<rect width="61" height="61" rx="5" fill="#1E1E1E"/>
<path d="M45.0282 11C49.6761 11 52 13.1886 52 17.5658C52 20.946 50.1953 25.5786 46.5858 31.4635C41.9379 39.0264 38.3779 45.7017 35.9056 51.4893C35.0156 51.8298 34.0267 52 32.9389 52C31.8511 52 30.788 51.7933 29.7497 51.3799C28.7113 50.9665 27.9944 50.5045 27.5988 49.9938C27.228 49.4831 26.3874 47.6349 25.0771 44.4493C23.7915 41.2636 22.4318 37.9321 20.9979 34.4546C19.5887 30.9772 18.0065 27.6213 16.2512 24.387C14.4959 21.1527 13.0249 19.1708 11.8382 18.4413C11.4426 18.1981 10.2559 18.0036 8.27813 17.8577C8.25341 17.6631 8.21632 17.4564 8.16688 17.2375C8.11743 16.9944 8.08035 16.812 8.05563 16.6904C7.98146 16.1797 7.98146 15.7177 8.05563 15.3043C11.6404 13.3345 15.6578 12.3496 20.1079 12.3496C20.9237 12.3496 21.5294 12.3618 21.925 12.3861C22.9386 13.4318 24.4591 16.3864 26.4863 21.25C28.5136 26.0893 31.0229 33.2266 34.0143 42.6619C39.3297 27.4632 42.111 18.648 42.3582 16.2162C42.4324 15.6082 42.4694 14.9273 42.4694 14.1735C42.4694 13.3953 42.2346 12.6536 41.7649 11.9484C41.7649 11.7295 42.1233 11.5228 42.8403 11.3283C43.5572 11.1094 44.2866 11 45.0282 11Z" fill="white"/>
</svg>
