<svg width="31" height="30" viewBox="0 0 31 30" fill="none" xmlns="http://www.w3.org/2000/svg">
<path d="M23.4885 27H7.5115C5.3037 27 3.5 25.1963 3.5 22.9885V7.0115C3.5 4.8037 5.3037 3 7.5115 3H23.4885C25.6963 3 27.5 4.8037 27.5 7.0115V22.9885C27.5 25.2062 25.7062 27 23.4885 27Z" stroke="#F5EBDD"/>
<path d="M11.1485 19.3614C12.3115 20.5244 13.8589 21.1651 15.5049 21.1651C17.1509 21.1651 18.6885 20.5244 19.8614 19.3614C21.0244 18.1984 21.6651 16.6509 21.6651 15.0049C21.6651 13.3589 21.0244 11.8115 19.8614 10.6485C18.6984 9.48543 17.1509 8.84477 15.5049 8.84477C13.8589 8.84477 12.3115 9.48543 11.1485 10.6485C9.98543 11.8115 9.34477 13.3589 9.34477 15.0049C9.34477 16.6509 9.98543 18.1984 11.1485 19.3614Z" stroke="#F5EBDD"/>
<path d="M22.8658 8.64234C23.5191 8.64234 24.0486 8.11279 24.0486 7.45956C24.0486 6.80633 23.5191 6.27678 22.8658 6.27678C22.2126 6.27678 21.683 6.80633 21.683 7.45956C21.683 8.11279 22.2126 8.64234 22.8658 8.64234Z" stroke="#F5EBDD"/>
</svg>
