<svg width="31" height="30" viewBox="0 0 31 30" fill="none" xmlns="http://www.w3.org/2000/svg">
<path d="M22.511 10.3384C22.3271 10.315 22.1316 10.3033 21.9362 10.2916C19.1428 10.1746 17.568 11.8595 17.0162 12.5849C16.8667 12.7838 16.7978 12.9008 16.7978 12.9008V10.7362H12.0272V26.9298H16.7978H17.0162C17.0162 25.28 17.0162 23.6419 17.0162 21.9922C17.0162 21.1029 17.0162 20.2137 17.0162 19.3244C17.0162 18.2246 16.9357 17.0545 17.476 16.0483C17.9358 15.2058 18.7635 14.7846 19.6946 14.7846C22.4535 14.7846 22.511 17.3236 22.511 17.5576C22.511 17.5693 22.511 17.581 22.511 17.581V27H27.5V16.4344C27.5 12.8189 25.6952 10.6894 22.511 10.3384Z" stroke="#F5EBDD"/>
<path d="M6.39684 8.89709C7.99673 8.89709 9.2937 7.57698 9.2937 5.94855C9.2937 4.32011 7.99673 3 6.39684 3C4.79696 3 3.5 4.32011 3.5 5.94855C3.5 7.57698 4.79696 8.89709 6.39684 8.89709Z" stroke="#F5EBDD"/>
<path d="M9.17118 10.7565H4.18216V26.9501H9.17118V10.7565Z" stroke="#F5EBDD"/>
</svg>
