<svg width="64" height="58" viewBox="0 0 64 58" fill="none" xmlns="http://www.w3.org/2000/svg">
<path d="M63.6998 18.4913L54.4316 11.9447V2.38233C54.3387 1.43509 53.609 0.674815 52.6663 0.543457H12.0633C11.1207 0.674956 10.3908 1.43509 10.2979 2.38233V11.8711L0.662001 18.4911C0.280316 18.7682 0.0385768 19.198 0 19.668V54.6072C0.125304 55.5662 0.879946 56.321 1.83888 56.4461H62.8907C63.6998 56.4461 63.994 55.4899 63.994 54.6072V19.6681C63.994 19.2268 64.0675 18.7854 63.6998 18.4913ZM54.4316 15.4754L60.7575 19.8151L54.4316 24.5963V15.4754ZM13.2402 3.48572H51.4894V26.8767L32.3647 41.2937L13.24 26.8767L13.2402 3.48572ZM10.2979 15.4019V24.67L3.97201 19.8153L10.2979 15.4019ZM2.94226 22.831L23.5381 38.4249L2.94226 52.3271V22.831ZM6.47302 53.504L26.0389 40.3375L31.2615 44.3095C31.5571 44.538 31.9177 44.6668 32.2912 44.6772C32.5855 44.6772 32.7326 44.5301 33.0267 44.3095L38.4698 40.1167L58.2565 53.504H6.47302ZM61.0518 51.8123L40.8974 38.2778L61.0518 22.831V51.8123Z" fill="#5F6C7B"/>
<path d="M20.5961 13.048H27.2161C28.0287 13.048 28.6873 12.3894 28.6873 11.5769C28.6873 10.7644 28.0287 10.1057 27.2161 10.1057H20.5961C19.7836 10.1057 19.125 10.7644 19.125 11.5769C19.125 12.3894 19.7836 13.048 20.5961 13.048Z" fill="#5F6C7B"/>
<path d="M20.5961 19.6681H44.1342C44.9467 19.6681 45.6053 19.0095 45.6053 18.197C45.6053 17.3845 44.9467 16.7259 44.1342 16.7259H20.5961C19.7836 16.7259 19.125 17.3845 19.125 18.197C19.125 19.0095 19.7836 19.6681 20.5961 19.6681Z" fill="#5F6C7B"/>
<path d="M45.6052 24.817C45.6052 24.0045 44.9466 23.3459 44.1341 23.3459H20.5961C19.7836 23.3459 19.125 24.0045 19.125 24.817C19.125 25.6296 19.7836 26.2882 20.5961 26.2882H44.1342C44.9466 26.2882 45.6052 25.6296 45.6052 24.817Z" fill="#5F6C7B"/>
</svg>
