<svg width="46" height="61" viewBox="0 0 46 61" fill="none" xmlns="http://www.w3.org/2000/svg">
<path d="M38.8868 48.924C37.0927 48.1314 34.7762 47.4908 32.1029 47.0396C32.883 46.2918 33.6807 45.4921 34.4804 44.6431C37.6741 41.2522 40.2225 37.7879 42.0549 34.3461C44.3712 29.9951 45.5457 25.6656 45.5457 21.4781C45.5457 9.85564 35.3298 0.399994 22.7728 0.399994C10.2159 0.399994 0 9.85564 0 21.4781C0 25.6656 1.17445 29.9951 3.49082 34.3462C5.32315 37.788 7.87156 41.2523 11.0653 44.6432C11.8649 45.4922 12.6627 46.2919 13.4428 47.0397C10.7695 47.4909 8.45303 48.1315 6.65891 48.9241C3.24665 50.4313 2.53032 52.1517 2.53032 53.3295C2.53032 54.8209 3.64479 56.9425 8.95365 58.5805C12.6637 59.7252 17.5714 60.3556 22.7728 60.3556C27.9743 60.3556 32.882 59.7252 36.592 58.5805C41.9009 56.9425 43.0154 54.8209 43.0154 53.3295C43.0154 52.1517 42.299 50.4313 38.8868 48.924ZM2.53032 21.4781C2.53032 11.147 11.6111 2.742 22.7728 2.742C33.9346 2.742 43.0154 11.147 43.0154 21.4781C43.0154 30.1724 37.3572 38.0156 32.6106 43.0642C28.5331 47.4012 24.4062 50.4812 22.7728 51.636C21.1391 50.4808 17.0122 47.4008 12.9351 43.0644C8.18848 38.0156 2.53032 30.1724 2.53032 21.4781ZM35.7918 56.3588C32.333 57.4258 27.7095 58.0135 22.7728 58.0135C17.8362 58.0135 13.2127 57.4258 9.75386 56.3588C6.28973 55.29 5.06063 54.0589 5.06063 53.3295C5.06063 52.113 8.35776 50.0179 15.6671 49.0818C16.7496 50.0341 17.7575 50.863 18.6383 51.557C17.2962 51.9861 16.4471 52.6208 16.4471 53.3295C16.4471 54.6235 19.2797 55.6715 22.7728 55.6715C26.2659 55.6715 29.0986 54.6235 29.0986 53.3295C29.0986 52.6208 28.2495 51.9861 26.9074 51.557C27.7882 50.863 28.7961 50.0341 29.8786 49.0818C37.1879 50.0179 40.4851 52.113 40.4851 53.3295C40.4851 54.0589 39.256 55.29 35.7918 56.3588Z" fill="#5F6C7B"/>
<path d="M40.485 21.4781C40.485 12.4384 32.5393 5.08401 22.7728 5.08401C13.0062 5.08401 5.06055 12.4384 5.06055 21.4781C5.06055 30.5178 13.0062 37.8722 22.7728 37.8722C32.5393 37.8722 40.485 30.5178 40.485 21.4781ZM7.59086 21.4781C7.59086 13.7298 14.4015 7.42602 22.7728 7.42602C31.1441 7.42602 37.9547 13.7298 37.9547 21.4781C37.9547 29.2264 31.1441 35.5302 22.7728 35.5302C14.4015 35.5302 7.59086 29.2264 7.59086 21.4781Z" fill="#5F6C7B"/>
<path d="M24.0389 29.6752C24.0389 30.3219 24.6053 30.8462 25.3041 30.8462H30.3647C31.0635 30.8462 31.6299 30.3219 31.6299 29.6752V23.8202H34.1602C34.6855 23.8202 35.1561 23.5198 35.3427 23.0653C35.5293 22.6109 35.3932 22.0969 35.0006 21.7739L23.6142 12.4059C23.1348 12.0115 22.4126 12.0115 21.9332 12.4059L10.5468 21.7739C10.1542 22.0969 10.0181 22.6109 10.2047 23.0653C10.3913 23.5198 10.862 23.8202 11.3873 23.8202H13.9177V29.6752C13.9177 30.3219 14.4841 30.8462 15.1828 30.8462H20.2435C20.9422 30.8462 21.5086 30.3219 21.5086 29.6752V26.1622H24.0389V29.6752ZM20.2435 23.8202C19.5447 23.8202 18.9783 24.3444 18.9783 24.9912V28.5042H16.448V22.6491C16.448 22.0024 15.8816 21.4781 15.1828 21.4781H14.715L22.7738 14.8478L30.8326 21.4781H30.3647C29.666 21.4781 29.0996 22.0024 29.0996 22.6491V28.5042H26.5692V24.9912C26.5692 24.3444 26.0028 23.8202 25.3041 23.8202H20.2435Z" fill="#5F6C7B"/>
</svg>
