<svg width="66" height="49" viewBox="0 0 66 49" fill="none" xmlns="http://www.w3.org/2000/svg">
<g filter="url(#filter0_dd_110_1166)">
<rect x="9.22858" y="5" width="46.6143" height="30.0304" rx="5.37857" fill="white"/>
<rect x="9.11652" y="4.88795" width="46.8384" height="30.2545" rx="5.49062" stroke="#D6DCE5" stroke-width="0.224107"/>
<path fill-rule="evenodd" clip-rule="evenodd" d="M19.4257 15.646H16.7382C16.5543 15.646 16.3979 15.7797 16.3692 15.9611L15.2823 22.8519C15.2607 22.9879 15.366 23.1104 15.5039 23.1104H16.7869C16.9709 23.1104 17.1273 22.9768 17.1559 22.795L17.4491 20.9365C17.4774 20.7544 17.6342 20.621 17.8177 20.621H18.6685C20.4388 20.621 21.4605 19.7644 21.7274 18.0669C21.8477 17.3243 21.7325 16.7408 21.3847 16.3321C21.0028 15.8835 20.3252 15.646 19.4257 15.646ZM19.7358 18.1628C19.5888 19.127 18.852 19.127 18.1396 19.127H17.734L18.0185 17.3262C18.0354 17.2174 18.1297 17.1372 18.2398 17.1372H18.4256C18.9109 17.1372 19.3688 17.1372 19.6054 17.4138C19.7463 17.5789 19.7896 17.824 19.7358 18.1628ZM27.4593 18.1319H26.1723C26.0627 18.1319 25.9679 18.2121 25.951 18.321L25.8941 18.6808L25.8041 18.5504C25.5255 18.146 24.9043 18.0109 24.2841 18.0109C22.8619 18.0109 21.6472 19.0879 21.4107 20.5988C21.2877 21.3523 21.4625 22.0729 21.89 22.5755C22.2823 23.0375 22.8435 23.2301 23.5111 23.2301C24.6569 23.2301 25.2925 22.4933 25.2925 22.4933L25.235 22.851C25.2134 22.9877 25.3187 23.1103 25.4558 23.1103H26.6151C26.7995 23.1103 26.955 22.9766 26.9841 22.7948L27.6797 18.3904C27.7017 18.255 27.5968 18.1319 27.4593 18.1319ZM25.6653 20.6364C25.5411 21.3716 24.9575 21.8651 24.2134 21.8651C23.8397 21.8651 23.5409 21.7452 23.3492 21.5181C23.159 21.2927 23.0866 20.9715 23.1472 20.6141C23.2632 19.8851 23.8566 19.3756 24.5895 19.3756C24.9548 19.3756 25.252 19.4969 25.4476 19.726C25.6437 19.9575 25.7215 20.2804 25.6653 20.6364ZM33.0202 18.1317H34.3136C34.4947 18.1317 34.6003 18.3348 34.4974 18.4833L30.196 24.6915C30.1264 24.792 30.0116 24.8519 29.8891 24.8519H28.5973C28.4155 24.8519 28.3093 24.6471 28.4146 24.4982L29.7539 22.6079L28.3295 18.4279C28.2802 18.2826 28.3875 18.1317 28.5421 18.1317H29.8129C29.978 18.1317 30.1236 18.2401 30.1713 18.3981L30.9273 20.9226L32.7111 18.2955C32.7809 18.193 32.8969 18.1317 33.0202 18.1317Z" fill="#253B80"/>
<path fill-rule="evenodd" clip-rule="evenodd" d="M47.0428 22.8513L48.1457 15.8345C48.1626 15.7256 48.257 15.6454 48.3667 15.6451H49.6084C49.7455 15.6451 49.8508 15.768 49.8291 15.904L48.7415 22.7944C48.7131 22.9762 48.5567 23.1098 48.3725 23.1098H47.2635C47.1264 23.1098 47.0211 22.9873 47.0428 22.8513ZM38.5958 15.6454H35.9079C35.7244 15.6454 35.568 15.7791 35.5392 15.9605L34.4523 22.8513C34.4307 22.9873 34.5359 23.1098 34.6733 23.1098H36.0524C36.1806 23.1098 36.2903 23.0164 36.3103 22.8891L36.6187 20.9358C36.6471 20.7538 36.8038 20.6204 36.9873 20.6204H37.8377C39.6084 20.6204 40.6299 19.7637 40.897 18.0663C41.0176 17.3237 40.9017 16.7402 40.554 16.3315C40.1723 15.8829 39.4953 15.6454 38.5958 15.6454ZM38.9059 18.1622C38.7593 19.1264 38.0225 19.1264 37.3096 19.1264H36.9044L37.1894 17.3255C37.2063 17.2168 37.2998 17.1366 37.4102 17.1366H37.596C38.081 17.1366 38.5393 17.1366 38.7757 17.4132C38.9168 17.5783 38.9597 17.8234 38.9059 18.1622ZM46.6287 18.1312H45.3426C45.2321 18.1312 45.1382 18.2114 45.1217 18.3204L45.0648 18.6802L44.9744 18.5498C44.6958 18.1454 44.0749 18.0103 43.4548 18.0103C42.0325 18.0103 40.8183 19.0873 40.5817 20.5982C40.4591 21.3517 40.6332 22.0723 41.0607 22.5749C41.4537 23.0369 42.0141 23.2295 42.6817 23.2295C43.8276 23.2295 44.463 22.4927 44.463 22.4927L44.4057 22.8504C44.3841 22.9871 44.4894 23.1097 44.6274 23.1097H45.7862C45.9697 23.1097 46.126 22.976 46.1548 22.7942L46.8507 18.3898C46.872 18.2543 46.7667 18.1312 46.6287 18.1312ZM44.8349 20.6358C44.7114 21.371 44.1271 21.8645 43.3828 21.8645C43.0098 21.8645 42.7105 21.7446 42.5186 21.5175C42.3284 21.2921 42.2569 20.9709 42.3168 20.6135C42.4333 19.8845 43.026 19.375 43.7589 19.375C44.1244 19.375 44.4214 19.4963 44.6172 19.7254C44.814 19.9569 44.8918 20.2798 44.8349 20.6358Z" fill="#179BD7"/>
</g>
<defs>
<filter id="filter0_dd_110_1166" x="0.0401697" y="0.293736" width="64.9911" height="48.4071" filterUnits="userSpaceOnUse" color-interpolation-filters="sRGB">
<feFlood flood-opacity="0" result="BackgroundImageFix"/>
<feColorMatrix in="SourceAlpha" type="matrix" values="0 0 0 0 0 0 0 0 0 0 0 0 0 0 0 0 0 0 127 0" result="hardAlpha"/>
<feOffset dy="0.448214"/>
<feGaussianBlur stdDeviation="2.24107"/>
<feColorMatrix type="matrix" values="0 0 0 0 0.717647 0 0 0 0 0.717647 0 0 0 0 0.717647 0 0 0 0.08 0"/>
<feBlend mode="normal" in2="BackgroundImageFix" result="effect1_dropShadow_110_1166"/>
<feColorMatrix in="SourceAlpha" type="matrix" values="0 0 0 0 0 0 0 0 0 0 0 0 0 0 0 0 0 0 127 0" result="hardAlpha"/>
<feOffset dy="4.48214"/>
<feGaussianBlur stdDeviation="4.48214"/>
<feColorMatrix type="matrix" values="0 0 0 0 0.717647 0 0 0 0 0.717647 0 0 0 0 0.717647 0 0 0 0.08 0"/>
<feBlend mode="normal" in2="effect1_dropShadow_110_1166" result="effect2_dropShadow_110_1166"/>
<feBlend mode="normal" in="SourceGraphic" in2="effect2_dropShadow_110_1166" result="shape"/>
</filter>
</defs>
</svg>
