<svg width="58" height="59" viewBox="0 0 58 59" fill="none" xmlns="http://www.w3.org/2000/svg">
<path d="M45.7084 36.5101C44.5233 35.2761 43.0938 34.6164 41.5788 34.6164C40.076 34.6164 38.6343 35.2639 37.4003 36.4979L33.5394 40.3465C33.2218 40.1755 32.9041 40.0167 32.5987 39.8578C32.1588 39.6379 31.7434 39.4302 31.3891 39.2103C27.7726 36.9133 24.486 33.9199 21.3338 30.0469C19.8066 28.1165 18.7803 26.4915 18.035 24.8421C19.0368 23.9257 19.9654 22.9727 20.8695 22.0564C21.2116 21.7143 21.5537 21.36 21.8958 21.0179C24.4616 18.4521 24.4616 15.1289 21.8958 12.5631L18.5603 9.22763C18.1816 8.84887 17.7906 8.4579 17.4241 8.06693C16.691 7.30942 15.9213 6.52748 15.1271 5.79441C13.942 4.62149 12.5247 3.99838 11.0341 3.99838C9.54355 3.99838 8.10184 4.62149 6.88006 5.79441C6.86784 5.80663 6.86784 5.80663 6.85562 5.81884L2.70155 10.0096C1.13766 11.5735 0.24576 13.4795 0.0502747 15.6909C-0.242954 19.2585 0.807782 22.5818 1.61416 24.7565C3.59345 30.0958 6.55018 35.044 10.9608 40.3465C16.3122 46.7365 22.7511 51.7825 30.1062 55.3378C32.9163 56.6696 36.6672 58.2457 40.8579 58.5145C41.1145 58.5267 41.3833 58.5389 41.6277 58.5389C44.45 58.5389 46.8202 57.5248 48.6774 55.5089C48.6896 55.4845 48.714 55.4722 48.7262 55.4478C49.3616 54.6781 50.0946 53.9817 50.8644 53.2364C51.3897 52.7354 51.9273 52.2101 52.4527 51.6603C53.6622 50.4018 54.2976 48.9357 54.2976 47.4329C54.2976 45.9179 53.65 44.4639 52.416 43.2422L45.7084 36.5101ZM50.0824 49.3755C50.0702 49.3755 50.0702 49.3878 50.0824 49.3755C49.6059 49.8887 49.1172 50.353 48.5918 50.8661C47.7977 51.6236 46.9913 52.4178 46.2338 53.3097C44.9998 54.6292 43.5459 55.2523 41.6399 55.2523C41.4566 55.2523 41.2611 55.2523 41.0779 55.2401C37.4491 55.008 34.077 53.5907 31.5479 52.3811C24.6326 49.0334 18.5603 44.2807 13.5144 38.2573C9.34807 33.2357 6.56239 28.593 4.7175 23.6081C3.58124 20.5658 3.16583 18.1956 3.3491 15.9597C3.47128 14.5302 4.02108 13.3451 5.03516 12.331L9.20145 8.16467C9.80013 7.60265 10.4355 7.29721 11.0586 7.29721C11.8283 7.29721 12.4514 7.76148 12.8424 8.15246C12.8546 8.16467 12.8668 8.17689 12.879 8.18911C13.6243 8.88553 14.333 9.60638 15.0782 10.3761C15.457 10.7671 15.848 11.1581 16.2389 11.5613L19.5744 14.8967C20.8695 16.1918 20.8695 17.3892 19.5744 18.6843C19.2201 19.0386 18.878 19.3929 18.5237 19.735C17.4974 20.7857 16.52 21.7632 15.457 22.7162C15.4326 22.7406 15.4081 22.7528 15.3959 22.7773C14.3452 23.828 14.5407 24.8543 14.7606 25.5507C14.7728 25.5874 14.785 25.624 14.7972 25.6607C15.6647 27.7621 16.8865 29.7414 18.7436 32.0995L18.7558 32.1117C22.1279 36.2658 25.6833 39.5035 29.6053 41.9837C30.1062 42.3014 30.6194 42.558 31.1081 42.8023C31.5479 43.0222 31.9633 43.2299 32.3176 43.4499C32.3665 43.4743 32.4154 43.511 32.4643 43.5354C32.8797 43.7431 33.2706 43.8408 33.6738 43.8408C34.6879 43.8408 35.3232 43.2055 35.5309 42.9978L39.7094 38.8193C40.1249 38.4039 40.7846 37.903 41.5543 37.903C42.3119 37.903 42.935 38.3795 43.3137 38.7949C43.3259 38.8071 43.3259 38.8071 43.3382 38.8193L50.0702 45.5513C51.3286 46.7976 51.3286 48.0804 50.0824 49.3755Z" fill="#5F6C7B"/>
<path d="M31.2424 14.4202C34.4435 14.9578 37.3514 16.4728 39.6728 18.7942C41.9942 21.1156 43.497 24.0235 44.0468 27.2246C44.1812 28.0309 44.8776 28.593 45.6717 28.593C45.7695 28.593 45.855 28.5807 45.9527 28.5685C46.8569 28.4219 47.4555 27.5667 47.3089 26.6625C46.6492 22.7895 44.8165 19.2585 42.0186 16.4606C39.2207 13.6627 35.6897 11.8301 31.8167 11.1703C30.9126 11.0237 30.0695 11.6224 29.9107 12.5143C29.7519 13.4062 30.3383 14.2736 31.2424 14.4202Z" fill="#5F6C7B"/>
<path d="M57.7793 26.186C56.6919 19.8083 53.6863 14.0048 49.0679 9.38647C44.4496 4.76812 38.6461 1.76253 32.2684 0.67514C31.3765 0.516308 30.5334 1.1272 30.3746 2.0191C30.228 2.92322 30.8267 3.76626 31.7308 3.92509C37.4243 4.8903 42.6169 7.59045 46.7465 11.7079C50.8762 15.8375 53.5641 21.0301 54.5293 26.7236C54.6637 27.53 55.3601 28.092 56.1543 28.092C56.252 28.092 56.3376 28.0798 56.4353 28.0676C57.3272 27.9332 57.9381 27.078 57.7793 26.186Z" fill="#5F6C7B"/>
</svg>
