<svg width="33" height="30" viewBox="0 0 33 30" fill="none" xmlns="http://www.w3.org/2000/svg">
<path fill-rule="evenodd" clip-rule="evenodd" d="M15.0164 19.4025C15.7459 19.427 16.4048 20.4318 18.3344 20.4318C21.9583 20.4563 24.4527 17.5643 25.2292 13.7656C27.9354 0.604642 9.50997 -0.449211 7.62742 10.3834C7.18032 12.9323 7.90981 15.8733 9.81589 16.8291C11.2749 17.5643 11.369 15.4566 10.9219 14.5498C8.94521 10.5305 11.3219 6.90326 14.4281 5.87391C17.3461 4.89358 19.4169 5.70235 20.9935 7.39342C23.0172 9.57465 22.0995 15.5056 19.6993 17.3928C18.8521 18.0545 17.299 18.2015 16.4989 17.4173C14.8517 15.8242 17.3931 12.4421 17.0166 9.96678C16.6401 7.51596 12.9221 7.88358 12.7338 11.4863C12.6397 13.3244 13.1574 13.8636 12.7574 15.7017C12.122 18.6427 10.1924 24.6472 11.5572 27C13.5574 26.0197 14.5458 20.1377 15.0164 19.4025Z" stroke="#F5EBDD"/>
</svg>
