<svg width="22" height="22" viewBox="0 0 22 22" fill="none" xmlns="http://www.w3.org/2000/svg">
<path fill-rule="evenodd" clip-rule="evenodd" d="M9.25374 16.8163C4.92937 16.8163 1.42382 13.3719 1.42382 9.11629C1.42382 4.86067 4.92937 1.40944 9.25374 1.40944C13.5781 1.40944 17.0844 4.86067 17.0844 9.11629C17.0844 13.3719 13.5781 16.8163 9.25374 16.8163ZM21.7855 20.8038L16.1074 15.2144C17.5938 13.5988 18.5075 11.4675 18.5075 9.11629C18.5075 4.08379 14.3646 0.00691605 9.25374 0.00691605C4.14287 0.00691605 0 4.08379 0 9.11629C0 14.1419 4.14287 18.2188 9.25374 18.2188C11.462 18.2188 13.4874 17.4557 15.0783 16.1838L20.779 21.7938C21.0574 22.0688 21.5077 22.0688 21.7855 21.7938C22.0639 21.5256 22.0639 21.0788 21.7855 20.8038Z" fill="#1E1E1E"/>
</svg>
