<svg width="41" height="41" viewBox="0 0 41 41" fill="none" xmlns="http://www.w3.org/2000/svg">
<path d="M13.8334 25.3075C13.8334 23.4665 12.341 21.9741 10.5001 21.9741C8.65913 21.9741 7.16675 23.4665 7.16675 25.3075V28.6408C7.16675 30.4817 8.65913 31.9741 10.5001 31.9741C12.341 31.9741 13.8334 30.4817 13.8334 28.6408V25.3075Z" stroke="white" stroke-width="2" stroke-linecap="round" stroke-linejoin="round"/>
<path d="M33.8334 25.3075C33.8334 23.4665 32.341 21.9741 30.5001 21.9741C28.6591 21.9741 27.1667 23.4665 27.1667 25.3075V28.6408C27.1667 30.4817 28.6591 31.9741 30.5001 31.9741C32.341 31.9741 33.8334 30.4817 33.8334 28.6408V25.3075Z" stroke="white" stroke-width="2" stroke-linecap="round" stroke-linejoin="round"/>
<path d="M7.16675 25.3075V20.3075C7.16675 16.7712 8.57151 13.3798 11.072 10.8794C13.5725 8.37888 16.9639 6.97412 20.5001 6.97412C24.0363 6.97412 27.4277 8.37888 29.9282 10.8794C32.4287 13.3798 33.8334 16.7712 33.8334 20.3075V25.3075" stroke="white" stroke-width="2" stroke-linecap="round" stroke-linejoin="round"/>
<path d="M30.5 31.9741C30.5 33.3002 29.4464 34.572 27.5711 35.5097C25.6957 36.4473 23.1522 36.9741 20.5 36.9741" stroke="white" stroke-width="2" stroke-linecap="round" stroke-linejoin="round"/>
</svg>
