<svg width="41" height="41" viewBox="0 0 41 41" fill="none" xmlns="http://www.w3.org/2000/svg">
<path d="M12.1667 31.9743C14.0077 31.9743 15.5 30.4819 15.5 28.641C15.5 26.8 14.0077 25.3076 12.1667 25.3076C10.3258 25.3076 8.83337 26.8 8.83337 28.641C8.83337 30.4819 10.3258 31.9743 12.1667 31.9743Z" stroke="#FAFAFA" stroke-width="2" stroke-linecap="round" stroke-linejoin="round"/>
<path d="M28.8333 31.9743C30.6743 31.9743 32.1667 30.4819 32.1667 28.641C32.1667 26.8 30.6743 25.3076 28.8333 25.3076C26.9924 25.3076 25.5 26.8 25.5 28.641C25.5 30.4819 26.9924 31.9743 28.8333 31.9743Z" stroke="#FAFAFA" stroke-width="2" stroke-linecap="round" stroke-linejoin="round"/>
<path d="M8.83325 28.6411H7.49992C6.39535 28.6411 5.49992 27.7457 5.49992 26.6411V21.9744M3.83325 8.64111H20.1666C21.2712 8.64111 22.1666 9.53654 22.1666 10.6411V28.6411M15.4999 28.6411H25.4999M32.1666 28.6411H33.4999C34.6045 28.6411 35.4999 27.7457 35.4999 26.6411V18.6411M35.4999 18.6411H22.1666M35.4999 18.6411L31.0825 11.2788C30.7211 10.6764 30.0701 10.3078 29.3675 10.3078H22.1666" stroke="#FAFAFA" stroke-width="2" stroke-linecap="round" stroke-linejoin="round"/>
<path d="M8.5 28.3076H7.16667C6.0621 28.3076 5.16667 27.4122 5.16667 26.3076V21.641M3.5 8.30762H19.8333C20.9379 8.30762 21.8333 9.20305 21.8333 10.3076V28.3076M15.5 28.3076H25.1667M32.5 28.3076H33.1667C34.2712 28.3076 35.1667 27.4122 35.1667 26.3076V18.3076M35.1667 18.3076H21.8333M35.1667 18.3076L30.7493 10.9453C30.3878 10.3429 29.7368 9.97428 29.0343 9.97428H21.8333" stroke="#FAFAFA" stroke-width="2" stroke-linecap="round" stroke-linejoin="round"/>
<path d="M5.5 12.126H12.1667" stroke="#FAFAFA" stroke-width="2" stroke-linecap="round" stroke-linejoin="round"/>
<path d="M2.31824 15.7622H8.9849" stroke="#FAFAFA" stroke-width="2" stroke-linecap="round" stroke-linejoin="round"/>
<path d="M5.5 19.3984H12.1667" stroke="#FAFAFA" stroke-width="2" stroke-linecap="round" stroke-linejoin="round"/>
</svg>
