<svg width="40" height="41" viewBox="0 0 40 41" fill="none" xmlns="http://www.w3.org/2000/svg">
<path d="M19.983 2.89502C21.0046 2.89502 22.004 3.04425 22.7574 3.32568L31.0748 6.44287H31.0758C33.2953 7.26964 35.0504 9.81523 35.0504 12.1743V24.5571C35.0504 25.6443 34.7062 26.8971 34.1237 28.0562C33.5777 29.1424 32.8403 30.11 32.0309 30.7632L31.8678 30.8901L24.7008 36.2397L24.6949 36.2446C23.4122 37.2337 21.7236 37.7407 19.9996 37.7407C18.2769 37.7407 16.5846 37.2339 15.2643 36.2554H15.2633L8.09924 30.9067C7.22654 30.256 6.4252 29.2285 5.84241 28.0669C5.25956 26.9052 4.91663 25.6523 4.91663 24.5737V12.1743C4.91663 9.81511 6.67157 7.26951 8.89124 6.44287H8.89221L17.2086 3.32568C17.962 3.04417 18.9614 2.89504 19.983 2.89502ZM20.0006 4.39307C19.202 4.39525 18.3751 4.50249 17.7418 4.73877L17.7408 4.73975L9.42444 7.85596H9.42346C8.59596 8.16755 7.85473 8.83007 7.32385 9.59814C6.79277 10.3665 6.43323 11.2975 6.43323 12.1909V24.5737C6.43323 25.4682 6.74381 26.4969 7.20081 27.4087C7.65769 28.3203 8.29305 29.1802 9.00061 29.7085L16.1676 35.0581C17.2294 35.852 18.628 36.2328 20.0016 36.2329C21.3755 36.2329 22.7778 35.8519 23.8473 35.0591L23.8492 35.0581L31.0153 29.7085L31.0162 29.7075C31.731 29.1715 32.3666 28.3125 32.8219 27.4019C33.2772 26.4912 33.5836 25.4672 33.5836 24.5737V12.1743C33.5836 11.2883 33.2232 10.3615 32.693 9.59424C32.1625 8.82669 31.422 8.16148 30.5973 7.84131L30.5924 7.83936L22.275 4.72217L22.2662 4.71924C21.6281 4.49404 20.8 4.39089 20.0006 4.39307Z" fill="#FAFAFA" stroke="#FAFAFA"/>
<path d="M24.4039 15.0776C24.692 14.7899 25.1755 14.7897 25.4635 15.0776C25.7514 15.3656 25.7513 15.8491 25.4635 16.1372L18.2965 23.3042C18.1452 23.4555 17.9574 23.5239 17.7662 23.5239C17.5752 23.5238 17.3881 23.4553 17.2369 23.3042L14.5533 20.6206C14.2655 20.3325 14.2654 19.849 14.5533 19.561C14.8414 19.273 15.3248 19.2732 15.6129 19.561L17.7662 21.7144L18.1207 21.3608L24.4039 15.0776Z" fill="#FAFAFA" stroke="#FAFAFA"/>
</svg>
